<?xml version="1.0" encoding="utf-8" ?><svg xmlns="http://www.w3.org/2000/svg" xmlns:xlink="http://www.w3.org/1999/xlink" width="800" height="188" viewBox="0 0 800 188"><path fill="#FEFEFE" d="M282.879 41.5911C291.36 40.6296 302.147 44.5633 307.846 50.984C308.109 48.3305 308.407 45.6805 308.74 43.0348C315.551 42.6406 326.024 42.9337 333.11 42.9407L333.166 148.042L306.107 148.028L305.918 142.763L305.922 111.169C301.552 115.766 297.103 117.826 290.861 118.68C269.266 121.541 251.818 108.05 249.345 86.3269C247.337 68.7001 252.486 50.3652 270.676 44.0411C274.874 42.5815 278.506 42.107 282.879 41.5911ZM292.554 96.2981C312.491 93.8653 309.768 62.957 291.238 63.8716C280.606 64.6233 275.314 71.6452 276.142 81.9201C276.934 91.7555 283.445 96.046 292.554 96.2981Z"/><path fill="#FEFEFE" d="M400.429 42.2806C408.992 42.5069 421.649 42.8111 430.084 42.263C427.104 48.3859 423.759 57.517 421.084 64.0496L399.347 116.877C391.306 117.325 379.934 117.018 371.728 116.962C364.989 101.966 358.601 86.2714 352.027 71.1444C348.546 63.1338 342.558 50.23 339.928 42.2891C342.002 42.6016 347.532 42.4725 349.869 42.4643C356.246 42.3929 362.624 42.406 369.001 42.5034C375.011 55.4585 380.645 73.2029 385.094 86.8971C388.337 76.5221 391.272 66.031 395.257 55.9102C397.034 51.3995 398.713 46.8176 400.429 42.2806Z"/><path fill="#FEFEFE" d="M458.64 58.5818C474.601 55.7894 489.811 66.4449 492.649 82.4071C495.487 98.3693 484.883 113.62 468.939 116.507C452.927 119.406 437.608 108.742 434.758 92.7124C431.908 76.6831 442.611 61.386 458.64 58.5818ZM466.573 113.276C480.742 111.699 490.964 98.9467 489.426 84.7651C487.887 70.5835 475.169 60.3222 460.992 61.8241C446.762 63.3316 436.46 76.1151 438.004 90.3496C439.548 104.584 452.351 114.858 466.573 113.276Z"/><path fill="#FEFEFE" d="M526.968 58.7917C527.137 58.7708 527.306 58.7538 527.475 58.7407C532.197 58.3655 548.225 61.5099 548.527 66.7825C548.132 67.5176 547.223 68.884 546.351 68.1753C540.584 63.4893 534.442 61.7636 526.99 62.1832C522.245 62.4504 517.05 62.8236 513.037 66.1512C507.401 70.826 508.841 79.902 515.733 82.5409C526.849 87.3724 553.188 84.5455 551.492 102.88C551.196 106.302 549.556 109.467 546.931 111.681C540.919 116.659 531.107 117.343 523.666 116.638C519.761 116.144 515.97 114.988 512.454 113.219C509.876 111.894 503.148 107.149 504.798 103.966C507.729 103.346 512.51 109.769 516.745 111.362C521.123 113.432 525.56 113.544 530.248 113.618C536.885 113.722 549.304 109.447 547.997 100.989C545.565 85.2557 519.169 91.4167 509.653 82.6309C507.238 80.4016 506.183 77.7889 506.049 74.5766C505.214 62.2265 517.35 59.3376 526.968 58.7917Z"/></svg>